
<svg xmlns="http://www.w3.org/2000/svg" viewBox="0 0 200 220" fill="none">
  
  <ellipse cx="100" cy="140" rx="62" ry="70" fill="#0a0e0d"></ellipse>
  
  <ellipse cx="100" cy="155" rx="40" ry="50" fill="#f0ede4"></ellipse>
  
  <circle cx="100" cy="78" r="48" fill="#0a0e0d"></circle>
  
  <ellipse cx="100" cy="88" rx="32" ry="28" fill="#f0ede4"></ellipse>
  
  <path d="M 70 96 Q 70 78 100 80 Q 130 78 130 96 L 130 110 Q 130 122 100 122 Q 70 122 70 110 Z" fill="#ff6b35"></path>
  
  <path d="M 78 96 Q 78 84 100 86 Q 122 84 122 96 L 122 102 Q 122 110 100 110 Q 78 110 78 102 Z" fill="#ffb347"></path>
  
  <line x1="90" y1="106" x2="110" y2="106" stroke="#1a1f1d" stroke-width="2"></line>
  
  <circle cx="86" cy="82" r="4" fill="#0a0e0d"></circle>
  <circle cx="86" cy="82" r="6" fill="none" stroke="#1a1f1d" stroke-width="1.5"></circle>
  
  <ellipse cx="82" cy="205" rx="14" ry="6" fill="#ff6b35"></ellipse>
  <ellipse cx="118" cy="205" rx="14" ry="6" fill="#ff6b35"></ellipse>
  
  <path d="M 40 130 Q 38 170 70 190 Q 62 170 60 140 Z" fill="#1a1f1d"></path>
</svg>